HIERARCHY
ROOT Hips
{
	OFFSET 0.000000 0.000000 0.000000
	CHANNELS 6 Xposition Yposition Zposition Zrotation Yrotation Xrotation 
	JOINT LowerBack
	{
		OFFSET 0.000000 0.000000 0.000000
		CHANNELS 3 Zrotation Yrotation Xrotation
		JOINT Spine
		{
			OFFSET 0.028270 2.035590 -0.193380
			CHANNELS 3 Zrotation Yrotation Xrotation
			JOINT Spine1
			{
				OFFSET 0.056720 2.048850 -0.042750
				CHANNELS 3 Zrotation Yrotation Xrotation
				JOINT Neck
				{
					OFFSET 0.000000 0.000000 0.000000
					CHANNELS 3 Zrotation Yrotation Xrotation
					JOINT Neck1
					{
						OFFSET -0.054170 1.746240 0.172020
						CHANNELS 3 Zrotation Yrotation Xrotation
						JOINT Head
						{
							OFFSET 0.104070 1.761360 -0.123970
							CHANNELS 3 Zrotation Yrotation Xrotation
							End Site
							{
								OFFSET 0.000000 0.000000 0.000000
							}
						}
					}
				}
				JOINT LeftShoulder
				{
					OFFSET 0.000000 0.000000 0.000000
					CHANNELS 3 Zrotation Yrotation Xrotation
					JOINT LeftArm
					{
						OFFSET 3.362410 1.200890 -0.311210
						CHANNELS 3 Zrotation Yrotation Xrotation
						JOINT LeftForeArm
						{
							OFFSET 4.983000 -0.000000 -0.000000
							CHANNELS 3 Zrotation Yrotation Xrotation
							JOINT LeftHand
							{
								OFFSET 3.483560 -0.000000 -0.000000
								CHANNELS 3 Zrotation Yrotation Xrotation
								JOINT LeftFingerBase
								{
									OFFSET 0.000000 0.000000 0.000000
									CHANNELS 3 Zrotation Yrotation Xrotation
									JOINT LeftHandIndex1
									{
										OFFSET 0.715260 -0.000000 -0.000000
										CHANNELS 3 Zrotation Yrotation Xrotation
										End Site
										{
											OFFSET 0.000000 0.000000 0.000000
										}
									}
								}
								JOINT LThumb
								{
									OFFSET 0.000000 0.000000 0.000000
									CHANNELS 3 Zrotation Yrotation Xrotation
									End Site
									{
										OFFSET 0.000000 0.000000 0.000000
									}
								}
							}
						}
					}
				}
				JOINT RightShoulder
				{
					OFFSET 0.000000 0.000000 0.000000
					CHANNELS 3 Zrotation Yrotation Xrotation
					JOINT RightArm
					{
						OFFSET -3.136600 1.374050 -0.404650
						CHANNELS 3 Zrotation Yrotation Xrotation
						JOINT RightForeArm
						{
							OFFSET -5.241900 -0.000000 -0.000000
							CHANNELS 3 Zrotation Yrotation Xrotation
							JOINT RightHand
							{
								OFFSET -3.444170 -0.000000 -0.000000
								CHANNELS 3 Zrotation Yrotation Xrotation
								JOINT RightFingerBase
								{
									OFFSET 0.000000 0.000000 0.000000
									CHANNELS 3 Zrotation Yrotation Xrotation
									JOINT RightHandIndex1
									{
										OFFSET -0.622530 -0.000000 -0.000000
										CHANNELS 3 Zrotation Yrotation Xrotation
										End Site
										{
											OFFSET 0.000000 0.000000 0.000000
										}
									}
								}
								JOINT RThumb
								{
									OFFSET 0.000000 0.000000 0.000000
									CHANNELS 3 Zrotation Yrotation Xrotation
									End Site
									{
										OFFSET 0.000000 0.000000 0.000000
									}
								}
							}
						}
					}
				}
			}
		}
	}
}
}
MOTION
Frames: 19
Frame Time: 0.008333
-3.971681 16.691388 -1.240447 4.274857 75.705134 23.195775 -3.829436 1.645712 4.897067 -1.960786 1.881993 -2.195376 -7.406388 1.794178 -0.151059 11.605263 6.099804 4.655009 -4.564201 -0.417915 2.856053 0.000000 0.000000 0.000000 -6.503225 1.543172 1.415660 -64.132405 -4.841571 18.994137 -2.832935 -38.866317 0.002276 3.093782 -1.909850 -0.053648 -0.094269 0.043842 0.000000 0.000000 0.000000 0.000000 0.000000 0.000000 0.000000 21.175763 6.630997 -0.948579 75.287833 25.119104 22.472880 2.285251 34.252239 0.007506 3.095614 9.681199 0.268457 -0.013516 -0.170566 0.000000 0.000000 0.000000 0.000000 0.000000 0.000000 0.000000 
-3.871272 16.687452 -1.239261 5.064278 75.260278 23.979355 -4.210608 1.586725 4.979585 -2.042134 1.837947 -2.188009 -7.448830 1.746935 -0.181720 11.643834 6.345359 4.778145 -4.576973 -0.419194 2.881988 0.000000 0.000000 0.000000 -6.472793 1.115049 1.489981 -63.581462 -5.369157 19.240113 -2.919600 -37.709981 0.002475 2.930225 -1.843662 -0.049059 -0.095127 0.040422 0.000000 0.000000 0.000000 0.000000 0.000000 0.000000 0.000000 21.270266 6.735490 -0.935700 75.600049 24.702217 20.646868 2.322677 32.524856 0.007149 3.037393 9.817543 0.266851 -0.012761 -0.165419 0.000000 0.000000 0.000000 0.000000 0.000000 0.000000 0.000000 
-3.775361 16.689314 -1.240650 5.591836 74.824773 24.493375 -4.496208 1.546449 5.101061 -2.102595 1.809134 -2.170149 -7.478454 1.715342 -0.207958 11.624359 6.607256 4.918810 -4.580670 -0.419996 2.912237 0.000000 0.000000 0.000000 -6.493136 0.653373 1.565833 -63.030423 -5.994109 19.476979 -3.012800 -36.389739 0.002591 2.723377 -1.731434 -0.042772 -0.095874 0.037039 0.000000 0.000000 0.000000 0.000000 0.000000 0.000000 0.000000 21.258945 6.853676 -0.923214 75.897297 24.318164 18.586578 2.358924 30.730620 0.006724 2.869814 9.969381 0.255746 -0.010767 -0.160369 0.000000 0.000000 0.000000 0.000000 0.000000 0.000000 0.000000 
-3.683368 16.696633 -1.244961 5.855645 74.387814 24.734481 -4.685458 1.525628 5.257723 -2.141969 1.796354 -2.141781 -7.495730 1.700349 -0.225271 11.547237 6.886229 5.072035 -4.576350 -0.420337 2.945448 0.000000 0.000000 0.000000 -6.559770 0.190823 1.641256 -62.492816 -6.731914 19.695332 -3.113056 -34.903342 0.002604 2.477164 -1.568591 -0.035288 -0.096683 0.033871 0.000000 0.000000 0.000000 0.000000 0.000000 0.000000 0.000000 21.147831 6.989386 -0.911480 76.162122 23.966191 16.331222 2.392498 28.902337 0.006260 2.590521 10.131012 0.234245 -0.007593 -0.155521 0.000000 0.000000 0.000000 0.000000 0.000000 0.000000 0.000000 
-3.594576 16.708835 -1.252217 5.872001 73.939423 24.718921 -4.784066 1.523420 5.441979 -2.161402 1.799118 -2.105029 -7.501643 1.701353 -0.234616 11.417891 7.188889 5.238230 -4.565287 -0.420319 2.981805 0.000000 0.000000 0.000000 -6.664258 -0.263703 1.715193 -61.980593 -7.561435 19.859109 -3.219258 -33.271805 0.002490 2.194640 -1.346767 -0.026906 -0.097598 0.031082 0.000000 0.000000 0.000000 0.000000 0.000000 0.000000 0.000000 20.948866 7.151453 -0.899054 76.376433 23.628952 13.916538 2.421948 27.084744 0.005789 2.216342 10.286480 0.203142 -0.003507 -0.150934 0.000000 0.000000 0.000000 0.000000 0.000000 0.000000 0.000000 
-3.508218 16.725226 -1.262252 5.662871 73.471415 24.471198 -4.800876 1.537745 5.644028 -2.162942 1.815862 -2.061188 -7.498161 1.716832 -0.232433 11.243403 7.500832 5.410998 -4.550632 -0.420082 3.019612 0.000000 0.000000 0.000000 -6.793070 -0.696328 1.784296 -61.506325 -8.470149 19.937374 -3.329758 -31.511964 0.002236 1.889645 -1.069274 -0.018427 -0.098684 0.028860 0.000000 0.000000 0.000000 0.000000 0.000000 0.000000 0.000000 20.684556 7.324842 -0.885074 76.523855 23.313682 11.442476 2.447436 25.302651 0.005342 1.753329 10.433446 0.162640 0.001445 -0.146651 0.000000 0.000000 0.000000 0.000000 0.000000 0.000000 0.000000 
-3.423466 16.745083 -1.274590 5.268570 72.978184 24.035475 -4.750634 1.565188 5.851945 -2.149865 1.843862 -2.013406 -7.487392 1.743873 -0.220930 11.034493 7.815635 5.589916 -4.535037 -0.419808 3.058882 0.000000 0.000000 0.000000 -6.929413 -1.116227 1.846633 -61.079878 -9.414860 19.875641 -3.441504 -29.659058 0.001835 1.578140 -0.737147 -0.010548 -0.099878 0.027374 0.000000 0.000000 0.000000 0.000000 0.000000 0.000000 0.000000 20.378398 7.501944 -0.867584 76.592881 23.008668 8.989465 2.469400 23.588245 0.004951 1.228715 10.557160 0.114836 0.007000 -0.142627 -0.000000 0.000000 0.000000 0.000000 0.000000 0.000000 0.000000 
-3.339639 16.767589 -1.288622 4.736805 72.455936 23.465069 -4.651159 1.600133 6.055686 -2.126294 1.878265 -1.960772 -7.472878 1.778045 -0.188465 10.802135 8.117108 5.758864 -4.521415 -0.419478 3.095029 0.000000 0.000000 0.000000 -7.060762 -1.453571 1.898757 -60.705744 -10.462441 19.709695 -3.555890 -27.686858 0.001321 1.295078 -0.376989 -0.004269 -0.101531 0.026920 0.000000 0.000000 0.000000 0.000000 0.000000 0.000000 0.000000 20.055637 7.666624 -0.852373 76.581581 22.723151 6.660617 2.489441 21.960428 0.004645 0.667835 10.650486 0.062233 0.012995 -0.138700 -0.000000 0.000000 0.000000 0.000000 0.000000 0.000000 0.000000 
-3.256136 16.792100 -1.303480 4.128216 71.904745 22.824598 -4.523125 1.638999 6.242127 -2.096752 1.916138 -1.910033 -7.456044 1.815729 -0.150586 10.560107 8.406365 5.931286 -4.511576 -0.419400 3.132139 0.000000 0.000000 0.000000 -7.165457 -1.789426 1.941181 -60.386897 -11.481062 19.321859 -3.665167 -25.682806 0.000676 1.057264 0.016311 0.000507 -0.103139 0.027512 0.000000 0.000000 0.000000 0.000000 0.000000 0.000000 0.000000 19.738800 7.816479 -0.832576 76.489024 22.426874 4.504802 2.508943 20.446959 0.004447 0.120652 10.688546 0.010028 0.018993 -0.134751 -0.000000 0.000000 0.000000 0.000000 0.000000 0.000000 0.000000 
-3.172575 16.817935 -1.318392 3.494349 71.326393 22.171073 -4.385711 1.675732 6.403835 -2.065768 1.951974 -1.859799 -7.440747 1.851914 -0.096041 10.319028 8.668010 6.090692 -4.507618 -0.419491 3.165548 0.000000 0.000000 0.000000 -7.236900 -2.053080 1.971692 -60.115343 -12.549005 18.772000 -3.770282 -23.621073 -0.000043 0.905142 0.407557 0.003883 -0.104959 0.029352 0.000000 0.000000 0.000000 0.000000 0.000000 0.000000 0.000000 19.449139 7.936023 -0.815081 76.324537 22.131861 2.596242 2.530487 19.055568 0.004379 -0.377328 10.663474 -0.037677 0.024804 -0.130543 -0.000000 0.000000 0.000000 0.000000 0.000000 0.000000 0.000000 
-3.088739 16.844653 -1.332500 2.883051 70.726358 21.556187 -4.256212 1.706325 6.533558 -2.037303 1.982106 -1.812962 -7.429045 1.882759 -0.030245 10.089233 8.897633 6.239040 -4.510593 -0.419852 3.196014 0.000000 0.000000 0.000000 -7.265537 -2.268991 1.990893 -59.880287 -13.622141 18.033209 -3.866532 -21.547921 -0.000823 0.864697 0.780311 0.006860 -0.106708 0.032400 0.000000 0.000000 0.000000 0.000000 0.000000 0.000000 0.000000 19.202708 8.018884 -0.798612 76.097532 21.829261 0.966419 2.555961 17.796123 0.004453 -0.784098 10.562418 -0.075784 0.030137 -0.125922 -0.000000 0.000000 0.000000 0.000000 0.000000 0.000000 0.000000 
-3.004488 16.871876 -1.345161 2.326551 70.111573 21.015735 -4.145751 1.727450 6.626275 -2.014034 2.003296 -1.771744 -7.423039 1.904901 0.042506 9.878543 9.091689 6.376888 -4.521307 -0.420545 3.223919 0.000000 0.000000 0.000000 -7.250498 -2.455436 2.000755 -59.661917 -14.663452 17.092340 -3.950207 -19.520775 -0.001665 0.947192 1.128459 0.010634 -0.108122 0.036541 0.000000 0.000000 0.000000 0.000000 0.000000 0.000000 0.000000 19.011665 8.060740 -0.782361 75.818008 21.511776 -0.378829 2.586922 16.682029 0.004662 -1.057648 10.371609 -0.099991 0.034696 -0.120751 -0.000000 0.000000 0.000000 0.000000 0.000000 0.000000 0.000000 
-2.920311 16.899279 -1.355886 1.856562 69.490218 20.577731 -4.067658 1.735774 6.686146 -1.998847 2.012511 -1.734172 -7.423213 1.915629 0.125689 9.690316 9.243125 6.496497 -4.538487 -0.421414 3.247134 0.000000 0.000000 0.000000 -7.185658 -2.586694 2.000191 -59.452632 -15.720026 16.053064 -4.019276 -17.515183 -0.002487 1.198248 1.383765 0.015809 -0.109179 0.041536 0.000000 0.000000 0.000000 0.000000 0.000000 0.000000 0.000000 18.875310 8.054523 -0.769575 75.501110 21.196243 -1.406522 2.624349 15.692109 0.004993 -1.197833 10.116446 -0.110299 0.038530 -0.115029 -0.000000 0.000000 0.000000 0.000000 0.000000 0.000000 0.000000 
-2.836026 16.926823 -1.364502 1.465132 68.870743 20.239249 -4.016145 1.730480 6.710854 -1.990789 2.008512 -1.703322 -7.431323 1.913322 0.210421 9.527007 9.357339 6.603665 -4.562631 -0.422560 3.267609 0.000000 0.000000 0.000000 -7.088382 -2.705293 1.995408 -59.216944 -16.710609 14.880016 -4.071816 -15.651619 -0.003369 1.571440 1.590244 0.023084 -0.109602 0.047102 0.000000 0.000000 0.000000 0.000000 0.000000 0.000000 0.000000 18.797641 8.007114 -0.756886 75.152261 20.859070 -2.172317 2.667946 14.865779 0.005406 -1.164903 9.772277 -0.103908 0.041279 -0.108698 -0.000000 0.000000 0.000000 0.000000 0.000000 0.000000 0.000000 
-2.752342 16.954294 -1.370885 1.165439 68.260541 20.005910 -3.997117 1.710424 6.709295 -1.990860 1.990368 -1.677164 -7.445602 1.897193 0.296371 9.385912 9.424467 6.694407 -4.592001 -0.423866 3.284339 0.000000 0.000000 0.000000 -6.950272 -2.818006 1.985611 -58.954869 -17.642695 13.682272 -4.106013 -13.927480 -0.004230 2.090683 1.686506 0.031858 -0.109376 0.052747 0.000000 0.000000 0.000000 0.000000 0.000000 0.000000 0.000000 18.769182 7.908445 -0.744042 74.783688 20.526612 -2.657161 2.718225 14.163880 0.005871 -0.980275 9.382838 -0.084617 0.043127 -0.101927 -0.000000 0.000000 0.000000 0.000000 0.000000 0.000000 0.000000 
-2.669330 16.981765 -1.375376 0.931587 67.664509 19.851738 -3.997197 1.676353 6.687473 -1.996145 1.958411 -1.655670 -7.466346 1.867423 0.379821 9.263772 9.454384 6.769730 -4.625543 -0.425277 3.297748 0.000000 0.000000 0.000000 -6.793454 -2.931454 1.976246 -58.642716 -18.490283 12.495563 -4.125284 -12.418075 -0.005113 2.692741 1.709787 0.040833 -0.108630 0.058211 0.000000 0.000000 0.000000 0.000000 0.000000 0.000000 0.000000 18.780723 7.772472 -0.730620 74.398544 20.178650 -2.912966 2.772780 13.623613 0.006321 -0.647038 8.943848 -0.054326 0.043974 -0.094794 -0.000000 0.000000 0.000000 0.000000 0.000000 0.000000 0.000000 
-2.587314 17.009184 -1.378420 0.743308 67.084865 19.751712 -4.006179 1.629360 6.655731 -2.004258 1.913553 -1.636417 -7.493053 1.825034 0.462150 9.155082 9.451183 6.825092 -4.661456 -0.426637 3.306584 0.000000 0.000000 0.000000 -6.634595 -3.026548 1.969637 -58.271376 -19.277456 11.420261 -4.134446 -11.139961 -0.005991 3.334990 1.665533 0.048609 -0.107692 0.063243 0.000000 0.000000 0.000000 0.000000 0.000000 0.000000 0.000000 18.818290 7.607215 -0.718229 74.001533 19.815569 -2.965084 2.829496 13.250413 0.006707 -0.194669 8.477940 -0.017536 0.043944 -0.087474 -0.000000 0.000000 0.000000 0.000000 0.000000 0.000000 0.000000 
-2.506744 17.036418 -1.380359 0.598653 66.522654 19.695547 -4.023948 1.572018 6.621428 -2.014348 1.858447 -1.621289 -7.520325 1.772128 0.529388 9.053875 9.408458 6.872224 -4.698668 -0.428090 3.314422 0.000000 0.000000 0.000000 -6.447086 -3.197830 1.966216 -57.865713 -19.884575 10.414961 -4.131111 -10.152024 -0.006789 4.000505 1.543589 0.053290 -0.106381 0.067391 0.000000 0.000000 0.000000 0.000000 0.000000 0.000000 0.000000 18.870426 7.405047 -0.698001 73.595548 19.450080 -2.816662 2.887577 13.007030 0.007015 0.342838 8.024474 0.021554 0.043246 -0.080311 -0.000000 0.000000 0.000000 0.000000 0.000000 0.000000 0.000000 
-2.427559 17.063562 -1.381966 0.459032 65.973181 19.643090 -4.030908 1.505904 6.595774 -2.022524 1.794280 -1.604521 -7.551783 1.710525 0.596349 8.954692 9.339010 6.894156 -4.735730 -0.429298 3.316186 0.000000 0.000000 0.000000 -6.283281 -3.330462 1.968861 -57.399629 -20.453504 9.633802 -4.127914 -9.418655 -0.007510 4.609276 1.391866 0.054774 -0.105509 0.070866 0.000000 0.000000 0.000000 0.000000 0.000000 0.000000 0.000000 18.924813 7.186880 -0.680021 73.179702 19.072466 -2.509252 2.942788 12.933099 0.007203 0.924719 7.588287 0.059343 0.042011 -0.073370 -0.000000 0.000000 0.000000 0.000000 0.000000 0.000000 0.000000 
